<svg version="1" xmlns="http://www.w3.org/2000/svg" width="346.667" height="346.667" viewBox="0 0 260.000000 260.000000"><path d="M57.2 41.2c-29.9 4.5-48.5 28.5-46.9 60.3 1.4 26.7 15.4 44.4 40.8 51.5 5.9 1.6 9.4 1.9 17.9 1.6 19-.8 33.4-7.8 42.8-21 9-12.4 10.7-18.3 10.7-36.1 0-15.7-1.6-22-7.9-31.9-11.7-18.3-34.4-27.9-57.4-24.4zm22.5 30.3c6.7 3.3 12.2 10.3 13.9 17.7 4.2 18.2-4.7 34.5-20.7 37.9-17.8 3.8-33.5-9-34.3-27.9-.4-9.5 3-18 9.7-23.8 8.5-7.4 21-8.9 31.4-3.9zM182.8 40.5c-.2.3-2.2.7-4.4 1-2.1.4-7.7 2.4-12.2 4.6-19 9.1-30 27.1-30.3 49.4-.2 9.4.5 14.5 3.1 22.9 7 22.6 29.4 37 55.8 36 24.4-1 43.5-14.9 51.3-37.4 3.2-9.5 3.6-26 .8-36.1-5.7-20.5-20.3-34.7-40.6-39.3-5.5-1.3-22.5-2-23.5-1.1zm21.7 30.3c5.4 2.8 9.8 7.3 12.6 13 3.3 6.6 3.3 20.6.1 27.3-3.2 6.8-6.5 10.3-12.5 13.3-12.6 6.1-27.9 2.5-35.1-8.4-10.7-16.3-4.1-40.5 12.8-46.4 5.8-2 17.1-1.4 22.1 1.2zM88.6 170.8l-6.8.3.7 5.7c2.9 23.5 23.5 41.2 47.7 41.2 5.6 0 15.6-2.3 20.3-4.7 9-4.6 18.1-14.1 22.3-23.4 2.4-5.2 4.9-17.5 3.8-18.6-1.2-1.2-26.6-1-26.6.2 0 3.2-2.5 9-5.3 12.2-10 11.4-27.5 8.7-33.8-5.1-1-2.3-1.9-4.9-1.9-5.9 0-.9-.8-1.7-1.7-1.8-7.1-.3-12.7-.4-18.7-.1z"/></svg>